<svg role="img" viewBox="0 0 1923.000000 1923.000000" xmlns="http://www.w3.org/2000/svg"><title>Grasshopper</title><g transform="translate(0.000000,1923.000000) scale(0.100000,-0.100000)"
fill="#000000" stroke="none">
<path d="M14244 19206 c-45 -20 -68 -75 -61 -146 5 -63 26 -113 86 -208 22
-35 44 -85 50 -111 34 -159 112 -1080 155 -1846 29 -494 39 -802 40 -1215 1
-382 0 -418 -17 -443 -22 -34 -56 -35 -192 -7 -169 35 -377 22 -444 -27 -39
-29 -49 -57 -68 -193 -19 -136 -31 -160 -82 -160 -69 0 -120 84 -128 210 -4
63 0 87 21 149 33 94 36 214 7 278 -35 77 -161 124 -243 90 -22 -9 -48 -32
-65 -58 -55 -84 -25 -214 68 -289 53 -42 79 -97 86 -181 7 -80 -3 -99 -51 -99
-44 1 -58 14 -161 157 -52 72 -109 140 -132 156 -104 74 -213 40 -244 -75 -29
-108 61 -378 195 -583 83 -127 99 -163 99 -220 0 -61 -32 -137 -76 -183 -38
-40 -89 -67 -260 -138 -162 -67 -232 -106 -343 -193 -112 -86 -198 -176 -404
-421 -343 -407 -833 -961 -1000 -1132 -61 -62 -122 -115 -145 -125 -37 -17
-85 -18 -650 -19 -857 -2 -1091 -22 -1622 -140 -300 -66 -420 -90 -603 -118
-414 -64 -639 -76 -1445 -76 -740 -1 -1050 -10 -1145 -35 -102 -26 -202 -80
-257 -138 -27 -29 -88 -109 -137 -179 -332 -480 -792 -851 -1898 -1534 -406
-250 -716 -415 -845 -449 -97 -26 -286 -30 -491 -11 -95 9 -225 16 -288 16
-166 0 -203 -20 -207 -112 -2 -53 22 -72 116 -92 122 -27 285 -36 732 -43 475
-6 575 0 660 42 71 35 250 175 969 758 825 671 901 732 1160 936 337 266 538
416 576 430 53 19 469 29 1665 40 1680 16 1943 26 2620 96 355 36 360 37 400
29 47 -9 65 -42 42 -78 -9 -13 -105 -104 -213 -202 -425 -384 -579 -570 -690
-840 -54 -131 -99 -199 -254 -384 -244 -291 -300 -406 -334 -687 -8 -67 -20
-141 -27 -163 -20 -67 -84 -128 -215 -205 -150 -88 -230 -165 -307 -297 -141
-238 -168 -344 -126 -475 13 -41 28 -45 124 -33 44 6 231 19 415 30 639 38
836 71 1068 180 126 59 252 147 532 370 336 267 452 349 845 595 392 246 554
356 746 511 155 124 220 166 286 183 73 20 97 -8 96 -104 -2 -84 -37 -158
-111 -237 -84 -89 -145 -130 -357 -241 -193 -101 -273 -151 -395 -245 -48 -37
-426 -405 -865 -841 -941 -936 -1129 -1112 -1337 -1248 -123 -81 -246 -139
-423 -198 -185 -62 -238 -89 -305 -155 -100 -99 -175 -229 -343 -595 -185
-403 -312 -666 -702 -1445 -976 -1951 -1379 -2680 -1547 -2797 -66 -45 -88
-93 -113 -251 -18 -109 -33 -143 -128 -277 -63 -90 -520 -701 -791 -1057 -119
-157 -146 -207 -146 -269 0 -103 76 -154 194 -129 126 26 165 78 978 1311 86
130 168 246 183 257 21 17 42 22 82 22 59 0 87 11 102 38 5 9 19 71 30 136 14
77 36 155 63 220 135 333 781 1648 1336 2721 576 1115 822 1515 967 1577 22 9
90 37 151 63 60 25 141 64 179 88 104 63 135 111 196 300 49 151 70 191 124
240 54 48 380 286 1525 1112 1366 987 1342 967 1512 1195 107 144 298 426 550
815 242 374 296 465 373 635 141 309 193 387 277 413 26 9 148 -21 206 -49 45
-22 58 -35 76 -73 19 -43 21 -62 21 -266 0 -249 -5 -279 -72 -459 -66 -179
-76 -235 -77 -426 -1 -383 97 -650 344 -940 116 -136 189 -208 460 -453 482
-436 723 -695 947 -1020 400 -578 657 -858 806 -874 36 -4 48 -1 74 21 67 56
70 168 8 293 -40 80 -93 137 -396 428 -153 147 -214 220 -374 450 -247 355
-370 487 -970 1046 -237 220 -326 314 -357 371 l-23 43 0 745 c-1 1028 -17
1276 -116 1810 -30 162 -30 392 0 505 46 171 150 260 353 301 65 13 118 16
262 11 317 -9 598 -73 1063 -243 241 -87 334 -113 462 -123 122 -11 284 3 355
29 33 13 142 84 278 181 314 226 323 230 480 205 178 -29 233 -20 275 43 45
67 24 141 -67 232 -74 74 -146 114 -238 131 -57 11 -65 10 -89 -8 -16 -12 -36
-45 -50 -84 -38 -102 -42 -104 -191 -109 -70 -2 -220 2 -333 9 -243 14 -287 8
-428 -53 -83 -36 -108 -42 -182 -45 -53 -2 -117 2 -165 12 -131 26 -226 35
-519 51 -427 24 -482 36 -585 132 -88 81 -133 176 -138 292 -8 158 33 204 347
386 94 55 194 119 221 143 97 84 151 247 130 392 -16 111 -54 197 -164 371
-36 56 -77 133 -92 173 -15 39 -40 98 -56 131 -37 78 -36 104 5 142 46 44 705
569 877 700 182 138 332 241 485 333 347 210 911 480 1260 604 254 91 277 105
289 172 11 54 -4 125 -30 151 -29 29 -49 27 -221 -28 -311 -101 -1001 -420
-1329 -616 -341 -205 -678 -486 -1151 -964 -240 -242 -317 -309 -354 -309 -10
0 -30 10 -44 23 -22 19 -27 34 -35 107 -11 105 -24 476 -50 1405 -43 1551 -62
1878 -135 2247 -45 224 -88 332 -149 369 -36 22 -107 24 -152 5z"/>
</g></svg>