<?xml version="1.0" encoding="utf-8"?>
<!-- Generator: Adobe Illustrator 27.5.0, SVG Export Plug-In . SVG Version: 6.00 Build 0)  -->
<svg version="1.1" id="NDI_Logo" xmlns="http://www.w3.org/2000/svg" xmlns:xlink="http://www.w3.org/1999/xlink" x="0px" y="0px"
	 viewBox="0 0 1047 550" style="enable-background:new 0 0 1047 550;" xml:space="preserve">
<style type="text/css">
	.st0{fill:#0E0E0E;}
</style>
<path id="Registered" class="st0" d="M828.2,386.5c-7.9,0-14,6-14,13.5c0,7.6,6.1,13.6,14,13.6s14-5.9,14-13.6
	C842.2,392.4,836.1,386.5,828.2,386.5z M828.2,388.7c6.4,0,11.4,4.9,11.4,11.3c0,6.4-5,11.3-11.4,11.3c-6.4,0-11.4-5-11.4-11.3
	C816.8,393.6,821.8,388.7,828.2,388.7z M833.9,397.1c0-2.5-2.1-4.3-5-4.3h-5.2v14.5h2.6v-5.9l4.7,5.9h3l-3.7-4.6
	c-0.2-0.3-0.3-0.6-0.3-0.9c0-0.5,0.2-0.8,0.8-0.9h0.1C832.7,400.4,833.9,398.9,833.9,397.1z M831.2,397.2c0,1.3-0.9,2-2.4,2h-2.5
	v-4.1h2.5C830.2,395.1,831.2,395.9,831.2,397.2z"/>
<path id="I" class="st0" d="M732.2,136.4v277.2h68.1V136.4H732.2z"/>
<path id="D" class="st0" d="M717.4,274.8c0-76.4-64.4-138.4-143.1-138.4H464.6v277.2h109.6C653.4,413.6,717.4,351.2,717.4,274.8z
	 M647.5,274.4c0,44.4-32.7,76.7-77.6,76.7h-28.3c-4.9,0-8.9-4-8.9-8.9V207.7c0-4.9,4-8.9,8.9-8.9h28.3
	C614.8,198.8,647.5,231.1,647.5,274.4z"/>
<path id="N" class="st0" d="M204.4,136.4v277.2h68.1V296.5c0-7.3,4.4-12.5,11.4-12.5c5.9,0,9.9,3.3,16.6,13.6l73.2,116H448V136.4
	h-68.1V255c0,7.3-4.4,12.5-11.4,12.5c-5.9,0-9.9-3.3-16.6-13.6l-73.2-117.5H204.4z"/>
</svg>
