<svg role="img" viewBox="0 0 400.000000 400.000000" xmlns="http://www.w3.org/2000/svg"><title>Resolume</title><g transform="translate(0.000000,400.000000) scale(0.100000,-0.100000)"
fill="#ffffff" stroke="none">
<path d="M920 3290 c-92 -4 -181 -14 -220 -24 -250 -67 -436 -259 -512 -532
-22 -78 -23 -88 -26 -873 -3 -875 -4 -864 59 -935 16 -19 51 -43 77 -53 45
-17 117 -18 1402 -18 1532 0 1429 -5 1605 80 202 98 332 255 397 480 l23 80 0
805 c0 886 2 850 -62 921 -70 78 14 73 -1363 75 -674 1 -1295 -2 -1380 -6z"/>
</g></svg>