<svg role="img" viewBox="0 0 1024.000000 1024.000000" xmlns="http://www.w3.org/2000/svg"><title>TouchDesigner</title><g transform="translate(0.000000,1024.000000) scale(0.100000,-0.100000)"
fill="#000000" stroke="none">
<path d="M2185 10230 c-16 -5 -69 -13 -116 -19 -251 -32 -548 -143 -774 -289
-486 -313 -790 -780 -882 -1352 -22 -142 -22 -418 0 -560 86 -535 370 -999
797 -1303 507 -361 1163 -463 1750 -273 41 14 120 41 175 61 200 73 541 189
600 205 17 4 75 22 130 38 292 89 575 142 754 142 174 0 362 -52 491 -135 207
-133 390 -388 578 -805 16 -36 39 -85 50 -110 35 -77 127 -307 197 -490 137
-360 161 -416 247 -569 87 -154 296 -392 457 -520 265 -211 564 -344 916 -407
141 -26 489 -26 630 0 175 31 345 81 480 141 115 51 141 64 228 117 590 357
947 983 947 1658 0 372 -104 730 -303 1045 -239 377 -608 666 -1027 805 -363
121 -776 135 -1140 39 -90 -24 -120 -34 -395 -134 -476 -173 -896 -290 -1169
-326 -117 -15 -360 -6 -446 16 -203 53 -386 193 -542 415 -155 221 -339 616
-553 1185 -69 185 -78 207 -130 320 -140 304 -394 594 -689 786 -75 49 -273
154 -341 180 -161 62 -299 99 -435 118 -47 7 -104 16 -128 21 -50 12 -314 11
-357 0z"/>
<path d="M4610 3904 c-14 -2 -59 -9 -100 -14 -464 -65 -918 -315 -1215 -671
-305 -366 -460 -792 -459 -1264 1 -386 104 -733 312 -1050 110 -168 303 -375
452 -487 352 -262 764 -398 1202 -398 179 0 307 15 471 55 701 169 1252 710
1433 1407 35 136 64 354 64 483 0 229 -59 519 -151 741 -258 623 -815 1059
-1507 1180 -83 15 -446 28 -502 18z"/>
</g></svg>